<?xml version="1.0" encoding="utf-8"?>
<!-- Generator: Adobe Illustrator 26.5.1, SVG Export Plug-In . SVG Version: 6.00 Build 0)  -->
<svg version="1.1" id="Capa_1" xmlns="http://www.w3.org/2000/svg" xmlns:xlink="http://www.w3.org/1999/xlink" x="0px" y="0px"
	 viewBox="0 0 800 800" style="enable-background:new 0 0 800 800;" xml:space="preserve">
<style type="text/css">
	.st0{fill:#DC291B;}
	.st1{fill:#BFC8D0;}
</style>
<circle class="st0" cx="400" cy="626.8" r="90.7"/>
<path class="st0" d="M400,384.9c-78,0-151.6,37.9-197,101.4c-12.9,18.1-8.7,43.3,9.4,56.2c7.1,5.1,15.3,7.5,23.4,7.5
	c12.6,0,25-5.9,32.8-16.9c30.3-42.4,79.4-67.7,131.4-67.7c52,0,101.1,25.3,131.4,67.7c12.9,18.1,38.1,22.3,56.2,9.4
	c18.1-12.9,22.3-38.1,9.4-56.2C551.6,422.8,478,384.9,400,384.9z"/>
<path class="st1" d="M400,233.7c-111.4,0-218,47.6-292.5,130.5c-14.9,16.6-13.5,42.1,3,56.9c7.7,6.9,17.3,10.3,26.9,10.3
	c11,0,22-4.5,30-13.4c59.2-65.9,144-103.7,232.5-103.7S573.3,352.1,632.5,418c14.9,16.6,40.4,17.9,56.9,3
	c16.6-14.9,17.9-40.4,3-56.9C618,281.2,511.4,233.7,400,233.7z"/>
<path class="st1" d="M788.5,245.5C685.2,140.4,547.3,82.5,400,82.5c-147.3,0-285.2,57.9-388.5,163.1c-15.6,15.9-15.4,41.4,0.5,57
	c7.8,7.7,18,11.5,28.2,11.5c10.4,0,20.9-4,28.8-12.1C157,212.4,274.6,163.1,400,163.1c125.5,0,243,49.3,330.9,138.9
	c15.6,15.9,41.1,16.1,57,0.5C803.8,286.9,804.1,261.4,788.5,245.5z"/>
</svg>
